<svg width="60" height="40" viewBox="0 0 60 40" fill="none" xmlns="http://www.w3.org/2000/svg">
<rect x="0.706055" y="7.57239" width="7.95439" height="2.17576" rx="0.422035" fill="#636363"/>
<path d="M0 10.9343C0 9.39755 4.0362 8.15161 5.57158 8.15161H56.8433C58.3787 8.15161 59.6235 9.39755 59.6235 10.9343V37.0282C59.6235 38.5652 58.3787 39.8109 56.8433 39.8109H2.78018C1.2448 39.8109 0 38.5652 0 37.0282V10.9343Z" fill="#121413"/>
<path d="M0 13.7563H14.9639C16.4996 13.7563 17.7441 15.002 17.7441 16.5391V34.9421C17.7441 36.4789 16.4996 37.7249 14.9639 37.7249H0V13.7563Z" fill="#434448"/>
<g opacity="0.2">
<path d="M36.8096 9.23145C44.9482 9.23148 51.5459 15.8354 51.5459 23.9814C51.5457 32.1273 44.9481 38.7304 36.8096 38.7305C28.671 38.7305 22.0734 32.1274 22.0732 23.9814C22.0732 15.8354 28.671 9.23145 36.8096 9.23145ZM36.8096 11.293C29.8083 11.293 24.1328 16.9738 24.1328 23.9814C24.133 30.989 29.8084 36.6699 36.8096 36.6699C43.8107 36.6699 49.4862 30.9889 49.4863 23.9814C49.4863 16.9738 43.8108 11.293 36.8096 11.293Z" fill="#636363"/>
<path d="M36.8096 9.23145C44.9482 9.23148 51.5459 15.8354 51.5459 23.9814C51.5457 32.1273 44.9481 38.7304 36.8096 38.7305C28.671 38.7305 22.0734 32.1274 22.0732 23.9814C22.0732 15.8354 28.671 9.23145 36.8096 9.23145ZM36.8096 11.293C29.8083 11.293 24.1328 16.9738 24.1328 23.9814C24.133 30.989 29.8084 36.6699 36.8096 36.6699C43.8107 36.6699 49.4862 30.9889 49.4863 23.9814C49.4863 16.9738 43.8108 11.293 36.8096 11.293Z" fill="#636363"/>
</g>
<path d="M36.81 32.7446C41.6454 32.7446 45.5653 28.8211 45.5653 23.9813C45.5653 19.1415 41.6454 15.218 36.81 15.218C31.9746 15.218 28.0547 19.1415 28.0547 23.9813C28.0547 28.8211 31.9746 32.7446 36.81 32.7446Z" fill="#434448"/>
<rect x="30.583" y="19.5687" width="12.4548" height="8.82516" rx="2.42671" fill="#121413"/>
<rect x="33.6865" y="19.5687" width="6.67751" height="0.699201" fill="#121413"/>
<rect x="33.6865" y="27.6077" width="6.67751" height="0.802263" fill="#121413"/>
<path d="M36.8103 27.0053C38.4789 27.0053 39.8315 25.6514 39.8315 23.9813C39.8315 22.3112 38.4789 20.9573 36.8103 20.9573C35.1417 20.9573 33.7891 22.3112 33.7891 23.9813C33.7891 25.6514 35.1417 27.0053 36.8103 27.0053Z" fill="#2E2E2E"/>
<mask id="mask0_42_270" style="mask-type:luminance" maskUnits="userSpaceOnUse" x="33" y="20" width="7" height="8">
<path fill-rule="evenodd" clip-rule="evenodd" d="M36.8103 27.0053C38.4789 27.0053 39.8315 25.6514 39.8315 23.9813C39.8315 22.3112 38.4789 20.9573 36.8103 20.9573C35.1417 20.9573 33.7891 22.3112 33.7891 23.9813C33.7891 25.6514 35.1417 27.0053 36.8103 27.0053Z" fill="white"/>
</mask>
<g mask="url(#mask0_42_270)">
<path d="M36.8093 25.2154C37.4904 25.2154 38.0425 24.6628 38.0425 23.9811C38.0425 23.2994 37.4904 22.7468 36.8093 22.7468C36.1283 22.7468 35.5762 23.2994 35.5762 23.9811C35.5762 24.6628 36.1283 25.2154 36.8093 25.2154Z" fill="#121413"/>
</g>
<path d="M46.0332 1.41712L59.463 1.31407L57.7705 0.202202C57.5692 0.0703311 57.334 0 57.0934 0H46.4453C46.2177 0 46.0332 0.184375 46.0332 0.412219V1.41712Z" fill="#434448"/>
<path d="M46.0332 1.12073H59.0053C59.3464 1.12073 59.623 1.39766 59.623 1.73906V6.01875H46.0332V1.12073Z" fill="#636363"/>
<rect opacity="0.65" x="48.7305" y="1.77197" width="9.38513" height="3.43431" rx="0.422035" fill="white"/>
<path d="M18.5263 7.17208C18.6827 6.97647 18.9194 6.86243 19.1697 6.86243H44.6078C44.8582 6.86243 45.0951 6.97647 45.2512 7.17208L46.0337 8.15159H17.7441L18.5263 7.17208Z" fill="#222423"/>
<rect x="46.0342" y="6.01868" width="8.8602" height="2.13278" fill="#222423"/>
<rect x="49.1338" y="2.28723" width="8.61512" height="0.57303" fill="white"/>
<rect x="49.1338" y="3.19983" width="8.61512" height="0.57303" fill="white"/>
<rect x="49.1338" y="4.11243" width="8.61512" height="0.57303" fill="white"/>
<path d="M9.84401 7.2512C9.93769 7.01652 10.1648 6.86243 10.4176 6.86243H15.0381C15.2909 6.86243 15.5181 7.01652 15.612 7.2512L15.9714 8.15159H9.48438L9.84401 7.2512Z" fill="#636363"/>
</svg>
