<svg width="100" height="32" viewBox="0 0 100 32" fill="none" xmlns="http://www.w3.org/2000/svg">
<path d="M20.6436 8.80936C21.9067 8.16615 25.4884 7.26559 29.7068 8.80936" stroke="#393939" stroke-width="3.06077" stroke-linecap="round"/>
<path d="M68.7061 8.80936C69.9695 8.16615 73.5509 7.26559 77.7693 8.80936" stroke="#393939" stroke-width="3.06077" stroke-linecap="round"/>
<path d="M45.9578 13.8883C45.9578 18.6859 42.5819 22.8406 37.7158 25.8468C32.869 28.8413 26.7415 30.5611 21.6811 30.5611C16.6764 30.5611 13.8102 28.8895 12.1257 26.1254C10.3833 23.2659 9.80957 19.0933 9.80957 13.8883C9.80957 8.95271 11.8357 5.90868 15.0473 4.04348C18.3345 2.13442 22.9406 1.41937 28.1173 1.41937C33.295 1.41937 37.7775 2.13476 40.9427 4.03707C44.0312 5.89283 45.9578 8.93281 45.9578 13.8883Z" fill="url(#paint0_linear_42_306)" stroke="black" stroke-width="1.27532"/>
<path d="M53.4062 13.8883C53.4062 18.6859 56.7825 22.8406 61.6482 25.8468C66.4951 28.8413 72.6226 30.5611 77.6829 30.5611C82.6876 30.5611 85.5539 28.8895 87.2383 26.1254C88.9811 23.2659 89.5545 19.0933 89.5545 13.8883C89.5545 8.95271 87.5284 5.90868 84.3167 4.04348C81.0295 2.13442 76.4235 1.41937 71.2468 1.41937C66.0691 1.41937 61.5868 2.13476 58.4214 4.03707C55.3332 5.89283 53.4062 8.93281 53.4062 13.8883Z" fill="url(#paint1_linear_42_306)" stroke="black" stroke-width="1.27532"/>
<path d="M45.8564 10.7177H53.9514" stroke="black" stroke-width="1.27532"/>
<path d="M27.8418 1.57544H73.0385" stroke="black" stroke-width="1.27532"/>
<path d="M98.8955 0L100 1.2744L89.1016 10.7202L87.9971 9.44577L98.8955 0Z" fill="black"/>
<path d="M1.1192 0.680878L11.0058 9.45207L9.88664 10.7136L0 1.94241L1.1192 0.680878Z" fill="black"/>
<defs>
<linearGradient id="paint0_linear_42_306" x1="8.74692" y1="0.576151" x2="8.74692" y2="31.4043" gradientUnits="userSpaceOnUse">
<stop stop-color="#7F91AD"/>
<stop offset="1" stop-color="#FB8BB9"/>
</linearGradient>
<linearGradient id="paint1_linear_42_306" x1="52.377" y1="0.576151" x2="52.377" y2="31.4043" gradientUnits="userSpaceOnUse">
<stop stop-color="#7F91AD"/>
<stop offset="1" stop-color="#FB8BB9"/>
</linearGradient>
</defs>
</svg>
