<svg width="100" height="46" viewBox="0 0 100 46" fill="none" xmlns="http://www.w3.org/2000/svg">
<path d="M22.2998 0C34.6156 1.93104e-05 44.5996 9.98399 44.5996 22.2998C44.5996 34.6156 34.6156 44.5996 22.2998 44.5996C9.98399 44.5996 1.93091e-05 34.6156 0 22.2998C0 9.98398 9.98398 0 22.2998 0ZM22.2998 4.08008C12.2374 4.08008 4.08008 12.2374 4.08008 22.2998C4.0801 32.3622 12.2374 40.5195 22.2998 40.5195C32.3622 40.5195 40.5195 32.3622 40.5195 22.2998C40.5195 12.2374 32.3622 4.0801 22.2998 4.08008Z" fill="#2E2622"/>
<path d="M77.6992 1.04535C90.015 1.04535 99.999 11.0293 99.999 23.3452C99.999 35.661 90.015 45.645 77.6992 45.645C65.3836 45.6447 55.3994 35.6608 55.3994 23.3452C55.3994 11.0295 65.3836 1.04559 77.6992 1.04535ZM77.6992 5.12543C67.637 5.12567 59.4805 13.2829 59.4805 23.3452C59.4805 33.4074 67.637 41.5646 77.6992 41.5649C87.7616 41.5649 95.9189 33.4075 95.9189 23.3452C95.9189 13.2828 87.7616 5.12543 77.6992 5.12543Z" fill="#2E2622"/>
<path d="M42.4901 24.2745L57.4722 24.4051C58.5989 24.4149 59.5202 23.5095 59.53 22.3828C59.5398 21.2562 58.6344 20.3349 57.5077 20.325L42.5257 20.1945C41.399 20.1847 40.4777 21.09 40.4679 22.2167C40.458 23.3434 41.3634 24.2647 42.4901 24.2745Z" fill="#2E2622"/>
</svg>
