<svg width="100" height="35" viewBox="0 0 100 35" fill="none" xmlns="http://www.w3.org/2000/svg">
<rect x="98.5547" y="32.8663" width="42.3737" height="31.1256" rx="11.75" transform="rotate(178.978 98.5547 32.8663)" fill="#302F35" fill-opacity="0.8"/>
<path d="M1.82295 20.3025C1.76109 26.7916 6.97135 32.1022 13.4604 32.164L31.479 32.3358C37.968 32.3976 43.2786 27.1874 43.3405 20.6983L43.4054 13.8905C43.4672 7.40147 38.257 2.0909 31.7679 2.02904L13.7493 1.85726C7.26027 1.7954 1.94971 7.00566 1.88785 13.4947L1.82295 20.3025Z" fill="#302F35" fill-opacity="0.8"/>
<path d="M83.0166 0.336548C92.3121 0.336548 99.8477 7.87215 99.8477 17.1676V17.9908C99.8476 27.2863 92.312 34.8219 83.0166 34.8219H71.0273C61.7319 34.8219 54.1963 27.2863 54.1963 17.9908V17.1676C54.1963 7.87215 61.7319 0.336548 71.0273 0.336548H83.0166ZM71.0273 2.35608C62.8474 2.35612 56.2158 8.98763 56.2158 17.1676V17.9908C56.2159 26.1708 62.8474 32.8023 71.0273 32.8024H83.0176C91.1973 32.8021 97.828 26.1706 97.8281 17.9908V17.1676C97.8281 8.98776 91.1974 2.35634 83.0176 2.35608H71.0273Z" fill="#C9A38D"/>
<path d="M16.8311 0C7.53575 0.000173074 0 7.53571 0 16.8311V17.3594C0.000234022 26.6545 7.53589 34.1893 16.8311 34.1895H28.2432C37.5383 34.1892 45.073 26.6545 45.0732 17.3594V16.8311C45.0732 7.53575 37.5384 0.000240786 28.2432 0L16.8311 0ZM28.2432 2.01953C36.423 2.01977 43.0537 8.6512 43.0537 16.8311V17.3594C43.0535 25.539 36.4228 32.1697 28.2432 32.1699H16.8311C8.65133 32.1697 2.02072 25.5391 2.02051 17.3594V16.8311C2.02051 8.65116 8.6512 2.0197 16.8311 2.01953L28.2432 2.01953Z" fill="#C9A38D"/>
<path d="M47.6852 8.7098C50.5552 8.33005 53.5729 9.0353 56.5437 11.0108L56.7184 11.1285L54.7871 15.3434C52.4848 13.7728 50.2298 13.2304 48.1119 13.5107C46.5751 13.714 45.2036 14.36 44.4011 15.0787L44.3276 15.1463L41.9072 11.3256C43.2823 10.0287 45.3827 9.01446 47.6852 8.7098Z" fill="#C9A38D"/>
</svg>
