<svg width="100" height="40" viewBox="0 0 100 40" fill="none" xmlns="http://www.w3.org/2000/svg">
<path d="M99.2202 16.6309C98.4254 15.7757 96.9867 15.2525 94.9342 15.0714C94.3306 8.67259 90.5376 5.25185 88.304 4.21557C83.4306 1.96455 78.1279 0.794191 72.7598 0.784758C70.8135 0.678424 68.8618 0.732267 66.9244 0.945738C66.749 0.67735 66.5146 0.452607 66.2391 0.288692C65.9636 0.124778 65.6543 0.0260294 65.3348 0H35.7956C35.4705 0.0319883 35.1574 0.139646 34.8814 0.314353C34.6053 0.48906 34.374 0.725963 34.206 1.0061C31.8923 0.782131 29.5656 0.724973 27.2437 0.835066C21.8755 0.844499 16.5729 2.01486 11.6994 4.26588C9.44578 5.27198 5.66284 8.73296 5.06924 15.1217C3.05704 15.3028 1.57807 15.826 0.783253 16.6812C0.508589 16.9686 0.297631 17.3107 0.164142 17.6851C0.0306527 18.0596 -0.0223559 18.458 0.0085659 18.8543C0.0442737 19.2458 0.158964 19.6259 0.345724 19.9718C0.532484 20.3176 0.787439 20.622 1.09516 20.8666C2.23237 21.6118 3.58196 21.9651 4.93847 21.8727C5.19 25.7965 6.14579 30.7968 9.05343 34.137C12.3132 37.8697 16.1967 39.8416 20.3117 39.8416C24.0887 39.7142 27.7133 38.3217 30.6041 35.8876C35.8903 31.9495 40.3027 26.9581 43.5627 21.2288C44.7224 19.3067 45.5554 17.2056 46.0277 15.011C46.3497 14.8443 46.6207 14.5935 46.812 14.2854C47.0033 13.9772 47.1077 13.6231 47.1142 13.2604V10.3628C47.9118 9.96966 48.7906 9.76976 49.6798 9.77931H50.3941C51.2809 9.75961 52.1599 9.94919 52.9597 10.3327V13.2604C52.9653 13.6082 53.0609 13.9485 53.2372 14.2482C53.4136 14.548 53.6646 14.797 53.9658 14.9708C54.4402 17.179 55.2764 19.2935 56.4408 21.2288C59.7008 26.9581 64.1131 31.9495 69.3994 35.8876C72.2902 38.3217 75.9149 39.7142 79.6918 39.8416C83.8068 39.8416 87.6903 37.8294 90.94 34.137C93.8577 30.7968 94.8135 25.7965 95.065 21.8727C96.4184 21.9651 97.7648 21.6117 98.8983 20.8666C99.2091 20.6249 99.4662 20.3212 99.6533 19.9748C99.8404 19.6284 99.9533 19.2468 99.9849 18.8543C100.027 18.4504 99.9806 18.0421 99.8485 17.658C99.7165 17.2739 99.502 16.9234 99.2202 16.6309ZM79.6314 35.8776C76.7495 35.7362 73.9976 34.6347 71.814 32.7486C66.9447 29.1104 62.8819 24.5029 59.8817 19.2165C57.2557 14.7595 56.8634 10.3327 59.0164 8.45126C59.9305 7.70595 60.947 7.09604 62.0347 6.64028C65.4609 5.40084 69.0871 4.80726 72.7296 4.88965C77.5227 4.84835 82.2685 5.84006 86.644 7.79729C88.2135 8.52168 90.9199 11.1677 91.0708 16.5303C91.1047 16.8041 91.1249 17.0794 91.1312 17.3553L91.1815 20.0415C91.1211 23.0598 90.6281 28.4827 87.972 31.5413C86.2415 33.5233 83.3943 35.8776 79.6314 35.8776ZM12.0315 31.5413C9.33513 28.4425 8.86225 22.8687 8.82201 19.8605V17.5162C8.82201 16.9025 8.89242 16.5101 8.90249 16.3793C9.04334 11.1476 11.7397 8.52168 13.3193 7.79729C17.6948 5.84006 22.4405 4.84835 27.2337 4.88965C30.8762 4.80726 34.5024 5.40084 37.9285 6.64028C39.0168 7.09504 40.0334 7.70503 40.9468 8.45126C43.0798 10.3327 42.7176 14.7495 40.0916 19.2165C37.0797 24.5068 33.0029 29.1146 28.119 32.7486C25.9354 34.6347 23.1836 35.7362 20.3016 35.8776C16.6193 35.8776 13.762 33.5233 12.0315 31.5413ZM42.0334 4.02441H57.125C56.1814 4.81914 55.4834 5.86603 55.1128 7.04271C53.6821 6.24943 52.0702 5.8404 50.4344 5.85551H49.72C48.0652 5.84208 46.4366 6.2692 45.0014 7.09302C44.3063 5.82164 43.2809 4.76147 42.0334 4.02441Z" fill="#ED7572"/>
</svg>
