<svg width="100" height="34" viewBox="0 0 100 34" fill="none" xmlns="http://www.w3.org/2000/svg">
<path d="M98.3788 1.71303H98.1957C94.3171 0.732613 85.1379 0 76.8421 0C71.0565 0 63.224 0.344755 58.7206 1.9716C57.2861 2.55213 56.0169 3.47722 55.0252 4.66504C54.0178 4.86073 52.9903 4.93309 51.9654 4.88052H50.0045C48.3475 5.01241 46.6807 4.95094 45.0378 4.69736C44.0461 3.50954 42.7768 2.58445 41.3424 2.00392C36.839 0.377075 28.9957 0.03232 23.2209 0.03232C14.9143 0.03232 5.73508 0.764933 1.86729 1.74535H1.67337C0.854561 1.95005 0.25125 2.1763 0.0788698 3.30755C0.0250009 3.59844 -0.158174 7.40158 0.326646 8.32813C0.592403 8.734 0.965289 9.05841 1.40402 9.26545C2.06853 9.63001 2.63718 10.1469 3.06323 10.7738C3.69888 11.7111 4.14055 14.0059 4.62537 16.3546C5.5196 20.7611 6.61855 26.2449 9.77527 29.6171C12.6519 32.6876 18.9222 33.7866 23.835 33.7866C29.6421 33.7866 36.9467 32.2567 39.9957 27.958C43.0447 23.6592 44.7577 19.0049 46.3738 14.4907L46.8263 13.2302C47.3954 12.707 48.1331 12.405 48.9057 12.3791C49.2627 12.33 49.6226 12.3048 49.983 12.3037C50.3903 12.3048 50.7971 12.3336 51.2005 12.3898C51.9404 12.4244 52.6435 12.7224 53.1828 13.2302L53.6246 14.48C55.2514 19.0049 56.9213 23.6808 60.0134 27.958C63.1055 32.2352 70.4209 33.7866 76.1741 33.7866C81.0762 33.7866 87.3465 32.7092 90.2339 29.6171C93.3906 26.2449 94.4895 20.7611 95.373 16.3546C95.8578 13.9628 96.3102 11.7111 96.9351 10.7738C97.3639 10.1493 97.9319 9.63297 98.5943 9.26545C99.0331 9.05841 99.406 8.734 99.6717 8.32813C100.157 7.40158 99.9734 3.59844 99.9303 3.30755C99.8118 2.16553 99.2084 1.93928 98.3788 1.71303ZM63.4825 26.0725C61.3278 23.239 57.5354 15.525 58.6236 10.526C58.7457 9.80293 59.0328 9.11773 59.4625 8.52357C59.8922 7.92941 60.4531 7.44226 61.1016 7.09992C64.2152 5.45153 71.3367 4.34183 78.8029 4.34183C82.2091 4.21872 85.6156 4.58149 88.9195 5.41921H89.1565C89.6651 5.50768 90.1406 5.73141 90.533 6.06694C90.9254 6.40247 91.2203 6.83742 91.3867 7.32617C92.1732 9.36241 91.8715 14.5338 91.3867 17.335C90.8372 20.3301 89.6629 24.1333 88.2838 25.8678C86.226 28.432 81.5179 30.0265 75.9802 30.0265C70.4424 30.0265 65.3141 28.4967 63.4825 26.0941V26.0725ZM36.5481 26.0725C34.7058 28.4751 29.696 30.0912 24.0721 30.0912C18.4482 30.0912 13.837 28.4966 11.7792 25.9325C10.4001 24.1979 9.215 20.3948 8.66554 17.3997C8.15917 14.5985 7.84673 9.42705 8.66554 7.39081C8.83116 6.90544 9.12308 6.47296 9.51125 6.13781C9.89943 5.80265 10.3699 5.57693 10.8742 5.48385H11.1328C14.4366 4.6454 17.843 4.28262 21.2493 4.40647C28.7155 4.40647 35.8263 5.48385 38.9399 7.16456C39.5899 7.50629 40.1524 7.99308 40.584 8.58721C41.0156 9.18133 41.3046 9.86684 41.4286 10.5906C42.5276 15.5466 38.746 23.2606 36.5804 26.0941L36.5481 26.0725Z" fill="#161515"/>
</svg>
