<svg width="100" height="97" viewBox="0 0 100 97" fill="none" xmlns="http://www.w3.org/2000/svg">
<path d="M32.9933 41.9567C38.8404 40.101 44.1083 43.7475 47.9177 46.7751C51.4798 50.3862 56.4112 55.4734 56.3356 63.3579C56.2598 71.2423 46.5056 74.1938 43.0627 77.0353C39.6197 79.8769 37.8423 88.9323 32.9628 92.6443C28.0834 96.3564 18.6475 99.8557 9.00477 90.9454C-0.637964 82.0348 -1.83064 74.3007 2.10782 65.7491C6.04627 57.1976 17.7714 55.1169 21.8154 52.8058C25.8595 50.4948 27.1462 43.8124 32.9933 41.9567Z" fill="#D0B98E"/>
<path d="M22.4613 62.7283C22.4086 56.4499 28.1081 53.1056 32.8915 53.1146C37.6749 53.1237 42.0785 57.7155 42.5243 63.1593C42.9701 68.603 38.5811 72.0691 32.473 72.5937C26.3652 73.1184 22.514 69.007 22.4613 62.7283Z" fill="#AB9265"/>
<path d="M24.9378 62.7928C24.898 58.044 29.2044 55.5143 32.8185 55.5211C36.4326 55.5278 39.7596 59.0009 40.0962 63.1184C40.4331 67.236 37.1168 69.8576 32.5019 70.2546C27.8871 70.6515 24.9775 67.5418 24.9378 62.7928Z" fill="#342B29"/>
<path d="M15.5379 66.3332C16.9729 65.5136 19.6595 69.1146 22.6354 72.4385C25.9683 75.6282 29.5803 79.0365 28.5026 79.7221C27.4249 80.4075 24.9838 78.5835 23.9365 77.8523C22.8892 77.1211 20.4206 76.5721 18.5521 74.4767C16.6838 72.3815 16.5876 70.2535 16.2532 69.3249C15.9188 68.3965 14.103 67.1528 15.5379 66.3332Z" fill="#967551"/>
<path d="M38.2041 51.9376L81.4235 12.2845L86.2407 17.3342L44.2116 58.9041L38.2041 51.9376Z" fill="#967551"/>
<path d="M82.6315 9.53552C82.3781 10.7772 81.4343 12.4862 80.9941 13.1853L85.498 17.9594C85.7652 17.6108 86.7547 16.8524 88.5742 16.6081C90.8485 16.3026 92.4541 14.1402 93.9932 11.7638C95.5325 9.3873 102.883 6.99397 98.4456 2.43403C94.0081 -2.12576 92.5482 3.15784 88.8237 4.99117C85.0992 6.82464 82.9483 7.98319 82.6315 9.53552Z" fill="#D0B98E"/>
<path d="M89.5387 1.39235C89.4784 0.894983 89.9187 0.195831 90.7025 0C91.8358 0.0243726 99.8609 9.12597 99.9874 9.83731C100.114 10.5486 99.247 11.3096 98.4725 11.0804C97.6978 10.8512 89.5988 1.88972 89.5387 1.39235Z" fill="#967551"/>
<path d="M86.8043 3.67218C86.7441 3.17481 87.1843 2.47566 87.9681 2.27997C89.1014 2.3042 97.1265 11.4058 97.253 12.1173C97.3794 12.8286 96.5127 13.5895 95.7381 13.3603C94.9634 13.131 86.8645 4.16955 86.8043 3.67218Z" fill="#967551"/>
<path d="M83.3494 6.19968C83.2869 5.6846 83.7438 4.96051 84.557 4.75787C85.7331 4.7831 94.0615 14.2089 94.1927 14.9456C94.3239 15.6823 93.4245 16.4703 92.6206 16.2328C91.8168 15.9953 83.4119 6.71476 83.3494 6.19968Z" fill="#967551"/>
<path d="M85.0761 9.06145C84.8761 10.0447 84.1315 11.3978 83.7842 11.9514L87.3366 15.731C87.5475 15.455 88.3281 14.8545 89.7633 14.6609C91.5573 14.4189 92.3103 12.3597 93.5246 10.478C93.8773 9.93164 94.6791 8.68084 95.0684 7.88916C96.0196 5.95438 96.9795 4.59249 96.6335 4.30852C96.2682 4.00854 95.7324 3.44528 94.9502 3.49289C93.5725 4.95142 91.7977 4.55536 89.9608 5.4631C87.0228 6.91497 85.326 7.83234 85.0761 9.06145Z" fill="#E8D6B3"/>
<path d="M86.4814 8.12018L19.791 71.0348L20.0827 71.3441L86.7732 8.4294L86.4814 8.12018Z" fill="black"/>
<path d="M90.7786 6.01526L20.4795 71.9705L20.7704 72.2806L91.0695 6.32528L90.7786 6.01526Z" fill="black"/>
<path d="M94.2833 4.53143L21.1035 73.2839L21.3946 73.5937L94.5744 4.84125L94.2833 4.53143Z" fill="black"/>
<path d="M94.97 5.53839L22.0459 74.0589L22.337 74.3687L95.2611 5.84819L94.97 5.53839Z" fill="black"/>
<path d="M90.7162 12.6754L23.7393 75.7257L24.0306 76.0352L91.0076 12.9849L90.7162 12.6754Z" fill="black"/>
<path d="M93.2033 8.61877L22.8242 74.9976L23.1159 75.3069L93.4949 8.92803L93.2033 8.61877Z" fill="black"/>
<path d="M25.5922 76.6675L18.5996 69.8151L18.082 70.3391L24.654 77.1835L25.5922 76.6675Z" fill="#292D34"/>
<path d="M93.4193 5.5151C94.2017 5.5319 94.8496 4.91126 94.8664 4.12884C94.8832 3.34643 94.2626 2.69854 93.4802 2.68173C92.6977 2.66493 92.0499 3.28558 92.033 4.06799C92.0162 4.8504 92.6369 5.4983 93.4193 5.5151Z" fill="#231B12"/>
<path d="M95.7728 8.11685C96.5552 8.13365 97.2031 7.513 97.2199 6.73059C97.2367 5.94818 96.6161 5.30028 95.8337 5.28348C95.0513 5.26667 94.4034 5.88732 94.3866 6.66973C94.3698 7.45215 94.9904 8.10004 95.7728 8.11685Z" fill="#231B12"/>
<path d="M90.1215 7.28677C90.9039 7.30357 91.5518 6.68292 91.5686 5.90051C91.5854 5.1181 90.9647 4.47021 90.1823 4.4534C89.3999 4.4366 88.752 5.05724 88.7352 5.83966C88.7184 6.62207 89.339 7.26996 90.1215 7.28677Z" fill="#231B12"/>
<path d="M93.8607 11.3356C94.6431 11.3524 95.291 10.7318 95.3078 9.94934C95.3246 9.16693 94.704 8.51903 93.9216 8.50223C93.1392 8.48542 92.4913 9.10607 92.4745 9.88848C92.4577 10.6709 93.0783 11.3188 93.8607 11.3356Z" fill="#231B12"/>
<path d="M86.389 9.47439C87.1714 9.49119 87.8193 8.87055 87.8361 8.08813C87.8529 7.30572 87.2323 6.65783 86.4499 6.64102C85.6675 6.62422 85.0196 7.24487 85.0028 8.02728C84.986 8.80969 85.6066 9.45758 86.389 9.47439Z" fill="#231B12"/>
<path d="M91.3793 14.684C92.1617 14.7008 92.8096 14.0801 92.8264 13.2977C92.8432 12.5153 92.2225 11.8674 91.4401 11.8506C90.6577 11.8338 90.0098 12.4545 89.993 13.2369C89.9762 14.0193 90.5969 14.6672 91.3793 14.684Z" fill="#231B12"/>
</svg>
