<svg width="100" height="55" viewBox="0 0 100 55" fill="none" xmlns="http://www.w3.org/2000/svg">
<path d="M100 25H0V31H100V25Z" fill="#BEBEBC"/>
<path d="M86 0H77V55H86V0Z" fill="#BEBEBC"/>
<path d="M92.6734 7.11768H87.3266C86.5939 7.11768 86 7.52353 86 8.02417V46.9759C86 47.4765 86.5939 47.8824 87.3266 47.8824H92.6734C93.406 47.8824 94 47.4765 94 46.9759V8.02417C94 7.52353 93.406 7.11768 92.6734 7.11768Z" fill="#BEBEBC"/>
<g style="mix-blend-mode:multiply">
<path d="M85.91 51.0675C85.4178 50.7881 84.8559 50.5577 84.245 50.3848C76.64 48.3913 79.07 27.855 79.475 0H77V55H86L85.91 51.0675Z" fill="#E6E6E6"/>
</g>
<g style="mix-blend-mode:multiply">
<path d="M93.9986 47.3573V45.9565C92.6158 45.9515 91.2488 45.7553 89.9798 45.3797C86.2825 44.1986 87.9302 24.889 88.2919 7.11768H86.7648C86.5623 7.11768 86.368 7.17266 86.2248 7.27053C86.0816 7.3684 86.0012 7.50115 86.0012 7.63956V47.3573C85.9954 47.4269 86.0111 47.4965 86.0474 47.5617C86.0837 47.6268 86.1398 47.6859 86.2119 47.7352C86.284 47.7845 86.3705 47.8228 86.4658 47.8476C86.5611 47.8724 86.663 47.8832 86.7648 47.8792H93.1949C93.2999 47.8874 93.4062 47.8797 93.5064 47.8568C93.6066 47.8338 93.6982 47.7962 93.7748 47.7464C93.8515 47.6967 93.9112 47.6361 93.9499 47.5688C93.9885 47.5016 94.0052 47.4294 93.9986 47.3573Z" fill="#E6E6E6"/>
</g>
<path d="M16 8.03369H8V46.9663H16V8.03369Z" fill="#BEBEBC"/>
<path d="M25 0H16V55H25V0Z" fill="#BEBEBC"/>
<g style="mix-blend-mode:multiply">
<path d="M15.96 44.6051C15.96 44.6051 14.76 45.4184 11.96 44.028C9.16002 42.6375 9.6 29.6512 9.88 8.03369H8V46.9663H16L15.96 44.6051Z" fill="#E6E6E6"/>
</g>
<g style="mix-blend-mode:multiply">
<path d="M25.955 52.3303C25.1927 52.21 24.4539 52.045 23.75 51.8379C17.945 50.205 20.105 37.5825 19.25 0H17V55H26L25.955 52.3303Z" fill="#E6E6E6"/>
</g>
</svg>
