<svg width="52" height="72" viewBox="0 0 52 72" fill="none" xmlns="http://www.w3.org/2000/svg">
<path d="M20.5576 0C22.2001 1.8752 23.4155 4.22024 23.9834 6.88281C24.9666 11.4931 23.791 16.0264 21.1709 19.293C26.2275 19.393 31.1988 22.4239 33.7676 27.5283C36.6231 33.203 35.651 39.735 31.8027 43.8662C39.2433 42.9413 47.9164 50.8477 51.7852 55.5762C48.2854 62.0758 46.7849 64.5763 40.7852 68.0762C36.8759 70.3562 28.1183 71.4095 23.7852 71.0762C21.5956 65.3834 19.0233 54.3213 25.1357 47.6309C19.1749 48.8826 12.7078 45.7452 9.64844 39.666C6.9768 34.357 7.65563 28.2971 10.9053 24.1553C6.59104 24.0678 2.55532 21.7721 0 18.1143C4.77928 13.0217 8.69502 7.33119 10.8604 1.16797C11.4775 1.21288 12.1019 1.2373 12.7324 1.2373C15.4886 1.23729 18.1263 0.799374 20.5576 0Z" fill="#161515"/>
</svg>
