<svg width="166" height="122" viewBox="0 0 166 122" fill="none" xmlns="http://www.w3.org/2000/svg">
<path d="M160.009 109.004C162.082 99.4699 164.609 83.126 165.53 73.5527L165.566 73.1706C166.663 61.3414 165.771 50.8948 161.842 44.5094C159.998 41.5131 156.311 30.768 146.399 24.6864C138.884 20.0747 131.494 17.1083 126.577 18.5075C121.673 10.4851 111.925 0.618669 90.6176 0.0226679C75.2597 -0.406914 74.3704 5.37304 62.9564 8.55129C49.8727 12.1945 33.2743 6.57377 18.7001 20.0764C-12.6479 49.1195 5.31393 75.1141 3.48743 84.3862C0.49045 99.5994 2.33492 113.199 5.10095 112.738C7.86697 112.277 10.4025 109.511 10.4025 110.433C12.9081 111.563 14.4824 96.0404 22.3886 91.0708L22.6548 90.8994C30.4723 85.7447 31.227 74.434 38.2932 70.3256C48.2048 64.5631 64.8009 67.0023 79.553 63.6411C97.7627 59.4921 96.1492 47.9278 103.064 43.8179C106.756 41.6239 114.018 44.9411 119.049 43.4165C120.698 62.1226 127.733 66.5028 134.501 69.9109L136.257 70.7866C148.704 77.0107 147.091 87.1523 149.396 91.0708C151.701 94.9893 150.748 100.499 153.975 100.499C157.202 100.499 158.847 109.28 159.999 109.05L160.009 109.004Z" fill="#161515"/>
<mask id="mask0_42_841" style="mask-type:luminance" maskUnits="userSpaceOnUse" x="11" y="12" width="143" height="110">
<path fill-rule="evenodd" clip-rule="evenodd" d="M11.064 50.9279C11.064 29.9301 42.7416 12.9081 81.8182 12.9081C120.895 12.9081 152.572 29.9301 152.572 50.9279V68.8852L152.932 72.4063C153.455 77.5312 152.28 82.6652 149.458 87.5689L143.828 97.354C138.263 107.027 124.88 114.945 107.561 118.934C91.272 122.685 72.6201 122.638 56.4596 118.73C40.3064 114.825 27.9371 107.461 22.3556 98.428L15.1696 86.7988C12.45 82.3982 11.064 77.7912 11.064 73.1543V68.8852V50.9279Z" fill="white"/>
</mask>
<g mask="url(#mask0_42_841)">
<path d="M71.2246 -2.06188C77.9608 -2.69909 87.7805 -0.404809 99.7564 4.07084C108.623 7.38441 118.292 11.7943 125.765 15.7361L126.26 15.9982L123.663 20.8828C116.33 16.9841 106.645 12.5511 97.8198 9.25283L97.0737 8.97592C86.177 4.95948 77.2827 2.92179 71.7456 3.44557C64.504 4.13059 58.3659 7.23269 50.2893 13.3955L49.7252 13.83C48.4977 14.7881 43.7917 18.4968 42.3867 19.5389C39.6124 21.5966 37.3677 22.99 35.1775 23.9078L34.9511 24.0011L32.8755 18.8732C34.5014 18.2151 36.3061 17.127 38.5935 15.4614L39.0911 15.0956C40.5375 14.0229 45.9048 9.78694 46.5905 9.26015L47.2784 8.73522C55.9449 2.16857 62.8331 -1.2681 71.2246 -2.06188Z" fill="#161515"/>
<path d="M77.9458 10.3796C90.2323 -0.541854 104.596 -5.98041 114.549 -1.61084C118.547 0.144389 122.046 3.5528 125.034 8.07561C127.198 11.3509 128.99 15.1027 130.025 18.1954L130.13 18.5129L124.865 20.2111C122.652 13.3503 117.663 5.79801 112.325 3.45454C104.94 0.212408 92.713 4.78163 81.9469 14.2266L81.6211 14.5143L77.9458 10.3796Z" fill="#161515"/>
</g>
</svg>
