<svg width="188" height="98" viewBox="0 0 188 98" fill="none" xmlns="http://www.w3.org/2000/svg">
<path d="M174.155 48.4222C173.939 48.252 173.72 48.1101 173.5 48C173.678 48.1269 173.899 48.2708 174.155 48.4222Z" fill="#161515"/>
<path d="M71.5 68C75.9 65.6 81 55.6667 83 51C85.5 56.6667 91.5 68 95.5 68C99.5 68 105 55.4 105 51C107 55.6667 112.1 65.6 116.5 68C119.5 65.5 125.9 59.8 127.5 57C129 61.6667 132.5 71.3 134.5 72.5C137.333 71.1667 143.5 67.8 145.5 65C147 69.3334 151 78.7 155 81.5C157 80.6667 161.5 78.5 163.5 76.5C163.5 81.5 164.1 92.1 166.5 94.5C168.333 93.8334 172.3 92.2 173.5 91C174.333 92.6667 176.2 96.2 177 97C178 98 184.5 90.5 179 72.5C180.667 74.1667 184.8 77.7 188 78.5C186 74.8334 181.9 67 181.5 65C181.028 62.6376 177.876 51.3456 174.155 48.4222C173.899 48.2708 173.678 48.1269 173.5 48C173.72 48.1101 173.939 48.252 174.155 48.4222C175.585 49.2649 178.126 50.3391 180.5 50C178 47.1667 172.8 40.9 172 38.5C171 35.5 161.5 20.5 155 20.5C156.5 20.3334 159.9 19.4 161.5 17C155 16.8334 141.1 15.8 137.5 13C133 9.50002 113 5.50002 105 6.00002C104.167 6.00002 102.1 5.5 100.5 3.5C100.5 4.7 98.8333 5.66668 98 6.00002C98 3.60004 95.3333 1.00002 94 0C92 1.2 90.5 4.16667 90 5.5C88.8 5.09998 87.8333 3.99999 87.5 3.5C85.9 5.5 83.8333 6.00002 83 6.00002C75 5.50002 55 9.50002 50.5 13C46.9 15.8 33 16.8334 26.5 17C28.1 19.4 31.5 20.3334 33 20.5C26.5 20.5 17 35.5 16 38.5C15.2 40.9 10 47.1667 7.5 50C9.87361 50.3391 12.4149 49.2649 13.8446 48.4222C14.0613 48.252 14.2799 48.1101 14.5 48C14.3224 48.1269 14.1014 48.2708 13.8446 48.4222C10.1239 51.3456 6.97248 62.6376 6.5 65C6.1 67 2 74.8334 0 78.5C3.2 77.7 7.33335 74.1667 9.00002 72.5C3.50002 90.5 10 98 11 97C11.8 96.2 13.6667 92.6667 14.5 91C15.7 92.2 19.6667 93.8334 21.5 94.5C23.9 92.1 24.5 81.5 24.5 76.5C26.5 78.5 31 80.6667 33 81.5C37 78.7 41 69.3334 42.5 65C44.5 67.8 50.6667 71.1667 53.5 72.5C55.5 71.3 59 61.6667 60.5 57C62.1 59.8 68.5 65.5 71.5 68Z" fill="#161515"/>
</svg>
