<svg width="166" height="95" viewBox="0 0 166 95" fill="none" xmlns="http://www.w3.org/2000/svg">
<path d="M26.4128 19.8281C43.0219 2.75476 67.5043 2.65491 83.262 2.65491C83.8299 11.5263 85.6894 33.9393 88.5853 52.6197C92.2053 75.97 66.227 59.6499 57.7092 64.4203C50.8952 68.2368 47.5748 82.9938 46.7939 90.3587C44.449 90.3587 39.6002 89.277 28.0162 91.2857C16.4326 93.294 8.41274 91.8866 5.57364 94.4807C2.8266 89.4428 3.40184 81.1989 1.22362 70.4361C-4.31534 43.0692 9.8032 36.9014 26.4128 19.8281Z" fill="#161515"/>
<path d="M65.7218 79.3688C63.6096 70.0619 58.1759 64.0224 54.959 60.6735C58.2474 45.7702 61.8417 13.6181 75.5687 3.57095C92.7269 -8.98796 146.082 14.3027 157.32 31.2794C168.083 47.5383 167.561 95.5872 162.628 91.8193C157.695 88.0519 149.33 91.8193 140.751 89.3077C132.172 86.796 101.501 94.5824 94.6376 91.8193C89.1468 89.609 73.4756 90.8983 66.3264 91.8193C66.8668 89.4446 66.7202 83.7683 65.7218 79.3688Z" fill="#161515"/>
</svg>
