<svg width="167" height="115" viewBox="0 0 167 115" fill="none" xmlns="http://www.w3.org/2000/svg">
<path d="M83.5 0C98.4117 0 110.5 9.62588 110.5 21.5C110.5 25.2919 109.265 28.8532 107.102 31.9463C153.456 41.9555 166.5 80.8989 166.5 115L162 114.5C161.049 113.549 159.615 102.894 158.646 94.4512L158.263 91.0029L158.27 91.4785C158.282 96.4552 156.724 103.224 155.5 102C154.3 100.8 144.333 97.5 139.5 96C137.973 93.7091 136.737 81.2126 136.461 76.7695C135.956 80.5394 132.75 89.4783 131 94C127.8 92.8 112.667 91.1667 105.5 90.5C104.7 89.3 102.167 73.3333 101 65.5C99.8 67.9 97.5 83.1667 96.5 90.5C94.5 90.5 87.4 90 83 90C78.6 90 71.5 90.5 70 90.5C69 83.1667 66.7 67.9 65.5 65.5C64.3333 73.3333 61.8 89.3 61 90.5C53.8333 91.1667 38.7 92.8 35.5 94C33.7497 89.4783 30.544 80.5394 30.0391 76.7695C30.1245 75.3946 30.1182 74.791 30 75.5C29.9501 75.7995 29.9671 76.232 30.0391 76.7695C29.7629 81.2126 28.5273 93.7091 27 96C22.1667 97.5 12.2 100.8 11 102C9.73629 103.264 8.11794 96.0103 8.2373 91.0029C7.30459 99.6524 5.5874 113.413 4.5 114.5L0 115C0 80.4872 12.2149 41.0127 59.6572 31.5947C57.643 28.5845 56.5 25.1489 56.5 21.5C56.5 9.62588 68.5883 0 83.5 0Z" fill="#161515"/>
</svg>
