<svg width="51" height="71" viewBox="0 0 51 71" fill="none" xmlns="http://www.w3.org/2000/svg">
<path d="M30.6035 0C32.6277 0.530405 34.7752 0.816406 37 0.816406C37.7596 0.816406 38.5102 0.782678 39.25 0.717773C41.5287 7.22192 45.7571 13.1999 50.8945 18.5049C48.3428 21.4878 44.7222 23.3177 40.8799 23.3955C44.1298 27.5374 44.8084 33.5971 42.1367 38.9062C39.0773 44.9857 32.6104 48.123 26.6494 46.8711C32.7623 53.5615 30.1896 64.6235 28 70.3164C23.6667 70.6497 14.909 69.5966 11 67.3164C5.00009 63.8164 3.49995 61.3163 0 54.8164C3.8688 50.0879 12.5418 42.1816 19.9824 43.1064C16.1341 38.9752 15.162 32.4433 18.0176 26.7686C20.5863 21.6642 25.5576 18.6332 30.6143 18.5332C27.9941 15.2665 26.8185 10.7334 27.8018 6.12305C28.2953 3.8092 29.2768 1.73437 30.6035 0Z" fill="#161515"/>
</svg>
