<svg width="166" height="97" viewBox="0 0 166 97" fill="none" xmlns="http://www.w3.org/2000/svg">
<path d="M105.585 59.1062C134.522 59.1062 149.734 58.758 150.919 85.5713C155.769 94.2912 162.628 93.615 163.76 77.7461C167.386 26.9235 118.607 -23.418 66.521 11.7088L82.92 34.8059C82.92 34.8059 100.763 42.0238 105.585 59.1062Z" fill="#161515"/>
<path d="M60.2545 59.1062C31.318 59.1062 16.1063 58.758 14.9209 85.5713C10.0711 94.2912 3.21224 93.615 2.07994 77.7461C-1.54645 26.9235 47.2332 -23.418 99.3188 11.7088L82.9198 34.8059C82.9198 34.8059 65.0773 42.0238 60.2545 59.1062Z" fill="#161515"/>
<path d="M104.624 58.3615C99.9324 43.3853 90.8782 40.2741 82.9199 34.7274C98.1131 34.7275 131.645 17.1227 142.366 52.236C152.013 83.8281 166 96.8508 166 96.8508H152.013C105.227 96.8508 110.03 75.6156 104.624 58.3615Z" fill="#161515"/>
<path d="M61.3755 58.3615C66.0675 43.3853 75.1217 40.2741 83.08 34.7274C67.8869 34.7275 34.3553 17.1227 23.6338 52.236C13.9876 83.8281 0 96.8508 0 96.8508H13.9874C60.7726 96.8508 55.9696 75.6156 61.3755 58.3615Z" fill="#161515"/>
</svg>
