<svg width="248" height="276" viewBox="0 0 248 276" fill="none" xmlns="http://www.w3.org/2000/svg">
<path d="M46.4928 47.7447C60.9928 -6.25528 109.993 0.244693 120.993 0.244719C185.993 0.244746 196.083 18.1903 207.993 47.7447C221.493 81.2447 233.993 109.745 238.493 119.245C242.993 128.745 252.493 151.245 245.493 169.745C242.33 178.103 237.433 182.481 233.013 185.83C227.651 189.893 222.993 192.44 222.993 198.745L226.843 208.929C232.729 218.446 242.845 229.227 238.493 239.745C233.693 251.345 216.493 258.911 208.493 261.245C209.493 258.911 210.893 252.345 208.493 244.745C204.993 254.578 193.993 274.445 177.993 275.245C180.993 264.078 186.093 239.445 182.493 230.245C177.993 218.745 173.493 216.245 173.493 198.745C173.493 181.245 168.493 169.245 177.993 154.745C187.493 140.245 200.493 134.745 198.493 119.245C185.293 104.445 170.993 63.7448 165.493 45.2447C161.893 50.4447 163.993 63.7447 165.493 69.7447C155.493 69.7447 140.993 57.4114 134.993 51.2447C135.793 56.8447 140.993 65.9114 143.493 69.7447C109.493 70.9447 98.9928 46.9114 97.9928 34.7447C85.4928 63.2446 77.9927 79.2446 59.4928 77.2447C59.4927 88.2447 51.4928 103.745 49.4928 119.245C47.4928 134.745 60.9928 140.245 70.4928 154.745C79.9927 169.245 74.4928 181.245 74.4928 198.745C74.4928 216.245 69.9928 218.745 65.4928 230.245C61.8928 239.445 66.9928 264.078 69.9928 275.245C53.9929 274.445 42.9928 254.578 39.4928 244.745C37.0928 252.345 38.4928 258.911 39.4928 261.245C31.4928 258.911 14.2929 251.345 9.49278 239.745C3.49278 225.245 24.9926 210.245 24.9928 198.745C24.9928 187.245 9.49281 188.245 2.49278 169.745C-4.50722 151.245 4.99278 128.745 9.49278 119.245C13.9928 109.745 41.0468 68.0263 46.4928 47.7447Z" fill="#161515"/>
</svg>
