<svg width="24" height="39" viewBox="0 0 24 39" fill="none" xmlns="http://www.w3.org/2000/svg">
<rect width="23.1425" height="38.7005" rx="4.27845" fill="#D3D8DF"/>
<path fill-rule="evenodd" clip-rule="evenodd" d="M12.2083 16.5338C12.3026 15.3392 13.347 14.4461 14.5427 14.5402C14.4486 15.7359 13.403 16.6278 12.2083 16.5338ZM15.4084 17.616C15.2376 17.6408 14.4794 17.7512 14.3743 19.2139L14.3733 19.2138C14.3006 20.2885 15.3872 21.0198 15.3995 21.0269C15.3992 21.0278 15.3985 21.0297 15.3973 21.0322C15.3709 21.0968 15.1541 21.6245 14.7058 22.1802C14.3042 22.6797 13.8887 23.1752 13.2985 23.1397C13.0142 23.1232 12.8311 23.0263 12.6409 22.9254C12.4422 22.8201 12.2354 22.7105 11.8969 22.6838C11.5415 22.6559 11.3095 22.734 11.0863 22.8094C10.8929 22.8745 10.7061 22.9374 10.4511 22.9275C9.87984 22.9035 9.49285 22.279 9.17101 21.7247C8.51144 20.5926 8.09822 18.5863 8.96547 17.3219C9.39625 16.6938 10.1064 16.3324 10.8415 16.3792C11.1585 16.3985 11.4554 16.5454 11.7157 16.6739C11.9143 16.7723 12.0915 16.8599 12.2395 16.8715C12.3723 16.8821 12.5557 16.8272 12.7692 16.7631C13.106 16.6623 13.5181 16.5388 13.9271 16.6131C14.208 16.6462 14.9905 16.8257 15.441 17.6098C15.4371 17.6118 15.4258 17.6135 15.4084 17.616Z" fill="white"/>
<rect x="2.47852" y="3.01672" width="4.27845" height="8.5569" rx="2.13923" fill="#3A3737"/>
</svg>
