<svg width="88" height="67" viewBox="0 0 88 67" fill="none" xmlns="http://www.w3.org/2000/svg">
<rect y="10.1951" width="78.1072" height="55.25" rx="8.5" transform="rotate(-7.5 0 10.1951)" fill="#BCC4CF"/>
<rect x="2.75" y="11.9451" width="78.1072" height="55.25" rx="7.25" transform="rotate(-7.5 2.75 11.9451)" fill="#D3D8DF"/>
<path d="M49.9575 31.5048C49.4395 27.7661 51.5295 27.3923 51.6163 27.3201C50.2055 25.7463 48.33 25.7166 47.6718 25.7773C46.085 25.8243 44.7355 27.0833 43.94 27.1881C43.147 27.2926 41.801 26.5478 40.5058 26.7418C38.803 26.9918 37.355 28.1631 36.6755 29.8078C35.3075 33.1193 37.2268 37.5041 39.2843 39.7713C40.289 40.8823 41.4775 42.1216 42.7945 41.8988C44.0605 41.6806 44.4405 40.8423 45.9808 40.6396C47.521 40.4368 48.0608 41.2056 49.406 41.0003C50.7723 40.7946 51.481 39.4603 52.1565 38.1236C52.9405 36.5778 53.168 35.2226 53.1818 35.1503C53.15 35.1403 50.3113 33.9966 49.9553 31.5053L49.9575 31.5048Z" fill="white"/>
<path d="M43.7041 26.4311C43.3386 23.6548 45.2926 21.1058 48.0709 20.7401C48.4366 23.5186 46.4804 26.0656 43.7041 26.4311Z" fill="white"/>
</svg>
