<svg width="12" height="45" viewBox="0 0 12 45" fill="none" xmlns="http://www.w3.org/2000/svg">
<path d="M0.65918 8.20801L11.47 8.81513L8.13959 38.473L1.35956 38.0922L0.65918 8.20801Z" fill="#968F8B"/>
<path d="M3.22656 18.633V22.1928V36.9007H5.19393L7.06752 19.0076L3.22656 18.633Z" fill="#EEC981"/>
<path d="M0.790039 13.8551V11.8879H11.0016V14.2299C11.0016 14.2299 9.59639 16.4067 5.66183 16.2909C3.11371 16.216 1.32097 14.511 0.790039 13.8551Z" fill="#EEC981"/>
<path d="M2.77442 38.1551L6.79189 38.4518L6.56418 41.5348L5.34976 41.4451L5.13584 44.3413L3.54771 44.2241L3.76146 41.3277L2.54688 41.2381L2.77442 38.1551Z" fill="#292929"/>
<path d="M11.9815 9.29489C11.7998 12.5318 8.97224 15.0053 5.66617 14.8196C2.36028 14.634 -0.172493 11.8595 0.00919485 8.62261C0.126758 6.5313 0.653204 6.93673 0.934183 7.09808C1.21533 7.2596 1.30911 2.41436 1.68386 1.38388C2.05861 0.353218 3.74466 -0.208911 6.74234 0.0720674C9.74019 0.353218 11.6138 1.3837 11.6138 2.60139C11.6138 3.81925 11.2392 8.2001 11.4266 8.12874C11.6138 8.05737 12.1006 7.17221 11.9815 9.29489Z" fill="#292929"/>
<mask id="mask0_42_531" style="mask-type:luminance" maskUnits="userSpaceOnUse" x="0" y="0" width="12" height="15">
<path fill-rule="evenodd" clip-rule="evenodd" d="M11.9815 9.29489C11.7998 12.5318 8.97224 15.0053 5.66617 14.8196C2.36028 14.634 -0.172493 11.8595 0.00919485 8.62261C0.126758 6.5313 0.653204 6.93673 0.934183 7.09808C1.21533 7.2596 1.30911 2.41436 1.68386 1.38388C2.05861 0.353218 3.74466 -0.208911 6.74234 0.0720674C9.74019 0.353218 11.6138 1.3837 11.6138 2.60139C11.6138 3.81925 11.2392 8.2001 11.4266 8.12874C11.6138 8.05737 12.1006 7.17221 11.9815 9.29489Z" fill="white"/>
</mask>
<g mask="url(#mask0_42_531)">
<path d="M3.50586 0.107483L-0.147461 14.7208L-0.329102 14.6758L3.32422 0.0615845L3.50586 0.107483ZM2.56836 0.106506L0.0390625 10.3174L-0.143555 10.2725L2.38672 0.0615845L2.56836 0.106506Z" fill="black"/>
<path d="M5.84863 -0.454895L2.19434 14.1584L2.0127 14.1135L5.66699 -0.500793L5.84863 -0.454895ZM4.90918 -0.453918L1.16309 13.7853L0.981445 13.7375L4.72852 -0.50177L4.90918 -0.453918Z" fill="black"/>
<path d="M8.0957 -0.455017L3.97363 16.2198L3.79199 16.1749L7.91406 -0.499939L8.0957 -0.455017ZM7.1582 -0.454041L2.94238 15.4717L2.76172 15.4239L6.97656 -0.501892L7.1582 -0.454041Z" fill="black"/>
<path d="M10.4395 -0.455017L6.31738 16.2198L6.13574 16.1749L10.2578 -0.499939L10.4395 -0.455017ZM9.5 -0.454041L5.28516 15.4717L5.10449 15.4239L9.31934 -0.501892L9.5 -0.454041Z" fill="black"/>
<path d="M12.5 -0.456116L8.37891 16.2197L8.19629 16.1747L12.3184 -0.501038L12.5 -0.456116ZM11.5615 -0.454163L7.34668 15.4716L7.16504 15.4238L11.3809 -0.502014L11.5615 -0.454163Z" fill="black"/>
<path d="M14.9336 -0.456116L10.8125 16.2197L10.6299 16.1747L14.752 -0.501038L14.9336 -0.456116ZM13.9971 -0.454163L9.78125 15.4716L9.60059 15.4238L13.8154 -0.502014L13.9971 -0.454163Z" fill="black"/>
<path d="M16.2734 4.20978L16.2256 4.39044L0.299805 0.175598L0.347656 -0.00604248L16.2734 4.20978ZM17.0215 3.17853L16.9766 3.36017L0.300781 -0.761902L0.345703 -0.943542L17.0215 3.17853Z" fill="black"/>
<path d="M16.2734 6.27094L16.2256 6.4516L0.299805 2.23676L0.347656 2.05511L16.2734 6.27094ZM17.0215 5.23969L16.9766 5.42133L0.300781 1.29926L0.345703 1.11761L17.0215 5.23969Z" fill="black"/>
<path d="M16.2734 8.33179L16.2256 8.51245L0.299805 4.29761L0.347656 4.11597L16.2734 8.33179ZM17.0215 7.30054L16.9766 7.48218L0.300781 3.36011L0.345703 3.17847L17.0215 7.30054Z" fill="black"/>
<path d="M16.2734 10.5801L16.2256 10.7607L0.299805 6.5459L0.347656 6.36426L16.2734 10.5801ZM17.0215 9.54883L16.9766 9.73047L0.300781 5.6084L0.345703 5.42676L17.0215 9.54883Z" fill="black"/>
<path d="M14.7744 12.4537L14.7266 12.6343L-1.19922 8.41949L-1.15137 8.23785L14.7744 12.4537ZM15.5225 11.4224L15.4775 11.6041L-1.19824 7.48199L-1.15332 7.30035L15.5225 11.4224Z" fill="black"/>
<path d="M14.7744 14.5147L14.7266 14.6954L-1.19922 10.4805L-1.15137 10.2989L14.7744 14.5147ZM15.5225 13.4835L15.4775 13.6651L-1.19824 9.54303L-1.15332 9.36139L15.5225 13.4835Z" fill="black"/>
<path d="M14.7744 16.5747L14.7266 16.7563L-1.19922 12.5415L-1.15137 12.3599L14.7744 16.5747ZM15.5225 15.5444L15.4775 15.7261L-1.19824 11.604L-1.15332 11.4224L15.5225 15.5444Z" fill="black"/>
</g>
</svg>
