<svg width="43" height="68" viewBox="0 0 43 68" fill="none" xmlns="http://www.w3.org/2000/svg">
<path fill-rule="evenodd" clip-rule="evenodd" d="M42.6672 61.0866L19.9461 16.0099L5.24954 64.3024L5.28759 64.2991C5.28724 64.3196 5.28794 64.34 5.28969 64.3604C5.44611 66.1804 13.9335 66.9373 24.2468 66.0509C34.56 65.1646 42.7938 62.9706 42.6374 61.1506C42.6356 61.1303 42.6328 61.11 42.629 61.0899L42.6672 61.0866Z" fill="#3071FF"/>
<path d="M18.8307 1.59747L22.4867 9.60993L29.3022 4.03194L27.5504 12.6631L36.3429 12.1565L29.8524 18.1095L37.2635 22.8678L28.5134 23.8689L31.7123 32.0745L24.0449 27.7413L21.8097 36.26L18.1537 28.2476L11.3382 33.8256L13.09 25.1944L4.29745 25.701L10.788 19.748L3.37688 14.9897L12.1269 13.9886L8.92808 5.78296L16.5954 10.1162L18.8307 1.59747Z" fill="#FFDB1F"/>
</svg>
