<svg width="50" height="50" viewBox="0 0 50 50" fill="none" xmlns="http://www.w3.org/2000/svg">
<path d="M24.875 49.7513C38.6131 49.7513 49.75 38.6144 49.75 24.8763C49.75 11.1382 38.6131 0.00128174 24.875 0.00128174C11.1369 0.00128174 0 11.1382 0 24.8763C0 38.6144 11.1369 49.7513 24.875 49.7513Z" fill="white"/>
<path fill-rule="evenodd" clip-rule="evenodd" d="M1.20594 17.2332C5.42094 4.18315 19.4662 -3.00935 32.5187 1.20565C45.5682 5.42066 52.7592 19.4657 48.5439 32.5182C44.3289 45.5707 30.2837 52.7582 17.2312 48.5457C4.18169 44.3307 -3.00936 30.2832 1.20594 17.2332ZM36.746 11.5232L29.5152 13.8857L27.7937 19.2107L31.614 24.4507L36.9342 24.7632L41.757 18.8782L46.0357 20.5507C44.888 14.9932 41.5805 10.0182 36.74 6.83066L36.746 11.5232ZM23.2382 7.15814L26.02 3.31314C20.2072 3.00814 14.574 5.07564 10.3557 8.89564L14.9295 10.1031L15.3605 17.6956L19.7945 20.5481L26.044 18.5031L27.7205 13.3056L23.2382 7.15814ZM4.89244 33.0581L7.51319 29.2756V29.2731L14.7987 31.4631L18.7132 28.4856L18.7009 22.0831L14.3399 19.2781L6.76019 21.4306L4.26694 18.3831C2.68769 23.3831 3.03694 28.5406 4.89244 33.0581ZM18.2335 45.4482C15.8465 44.6782 13.7022 43.5107 11.8135 42.0707L16.0952 39.9807L15.9372 32.9607L19.7972 30.0282L26.0715 32.0532L27.4927 36.7157L22.9102 42.7882L25.4792 46.4607C23.0862 46.5307 20.6385 46.2257 18.2335 45.4482ZM36.4087 43.1407V39.1257L29.2964 36.1632L27.8204 31.3282L31.4402 26.3257L36.8247 26.6432L40.9304 33.0482L45.2977 31.9057C43.8442 36.1257 41.2117 39.6207 37.8787 42.1282C37.4024 42.4857 36.9122 42.8232 36.4087 43.1407Z" fill="#383535"/>
</svg>
