<svg width="28" height="20" viewBox="0 0 28 20" fill="none" xmlns="http://www.w3.org/2000/svg">
<path d="M14.7783 4.16357C18.4845 4.16357 18.3232 1.5 22.4411 1.5C29.0298 4 25.8727 9.83334 22.4411 11C23.6765 15 21.6175 18.5 19.5586 17.5C17.4996 16.5 18.735 12.5 17.4996 11C16.4497 9.72525 8.98445 11.1636 5.27832 8.66357C1.57219 6.16359 0.306022 4.66357 2.77678 3.16357C5.24753 1.66357 11.0722 4.16357 14.7783 4.16357Z" fill="#46D6E3" fill-opacity="0.9" stroke="#46D6E3" stroke-width="3" stroke-linecap="round" stroke-linejoin="round"/>
<path d="M4.89362 4.33968C5.14504 4.12402 6.26756 4.08624 6.66049 4.33959C7.70097 5.09966 7.2499 6.62028 6.60236 7.03077C6.39837 7.16009 4.93023 7.3816 4.49949 6.62028C4.06875 5.85896 4.30287 4.84641 4.89362 4.33968Z" fill="white" fill-opacity="0.9" stroke="white" stroke-linecap="round" stroke-linejoin="round"/>
<path d="M20.4834 12.2222C20.5672 12.1503 20.9414 12.1377 21.0724 12.2222C21.4192 12.4755 21.2688 12.9824 21.053 13.1192C20.985 13.1623 20.4956 13.2362 20.352 12.9824C20.2085 12.7286 20.2865 12.3911 20.4834 12.2222Z" fill="white" fill-opacity="0.9" stroke="white" stroke-linecap="round" stroke-linejoin="round"/>
<path d="M21.6757 3.28094C21.8138 3.13716 22.4301 3.11198 22.6458 3.28088C23.2171 3.78759 22.9695 4.80134 22.6139 5.075C22.5019 5.16121 21.6958 5.30889 21.4593 4.80134C21.2228 4.29379 21.3514 3.61876 21.6757 3.28094Z" fill="white" fill-opacity="0.9" stroke="white" stroke-linecap="round" stroke-linejoin="round"/>
</svg>
