<svg width="26" height="13" viewBox="0 0 26 13" fill="none" xmlns="http://www.w3.org/2000/svg">
<path d="M6.43553 1.5L20.7239 1.5002C27.1271 4.00391 24.1788 10.048 20.7239 10.35C18.8509 10.5137 6.44054 12.8537 2.83872 10.35C-0.763095 7.84628 3.7509 1.5 6.43553 1.5Z" fill="#46D6E3" fill-opacity="0.9" stroke="#46D6E3" stroke-width="3" stroke-linecap="round" stroke-linejoin="round"/>
<path d="M18.3204 3.73497C18.6556 3.44742 20.1523 3.39706 20.6762 3.73485C22.0635 4.74828 21.4621 6.77577 20.5987 7.3231C20.3267 7.49551 18.3692 7.79087 17.7949 6.77577C17.2206 5.76067 17.5327 4.41062 18.3204 3.73497Z" fill="white" fill-opacity="0.9" stroke="white" stroke-linecap="round" stroke-linejoin="round"/>
<path d="M4.1153 6.67623C4.36672 6.46057 5.48924 6.42279 5.88217 6.67614C6.92265 7.43621 6.47158 8.95683 5.82404 9.36732C5.62005 9.49663 4.15191 9.71815 3.72117 8.95683C3.29043 8.19551 3.52455 7.18296 4.1153 6.67623Z" fill="white" fill-opacity="0.9" stroke="white" stroke-linecap="round" stroke-linejoin="round"/>
</svg>
