<svg width="53" height="51" viewBox="0 0 53 51" fill="none" xmlns="http://www.w3.org/2000/svg">
<g filter="url(#filter0_i_16_3537)">
<path d="M26.6025 50.8345C24.5636 50.8345 21.4416 45.0264 18.0215 36.6658C18.7193 31.959 20.45 22.2032 21.7902 20.8345L31.2307 20.8345C32.5709 22.2032 34.3237 32.091 35.0215 36.7979C33.2358 41.4767 29.052 50.8345 26.6025 50.8345Z" fill="#C23232"/>
</g>
<g filter="url(#filter1_d_16_3537)">
<path d="M20.2767 20.1542C18.3711 16.9784 23.4524 11.4209 26.2312 9.03906C29.0101 11.4209 34.0914 16.9784 32.1858 20.1542C30.2803 23.3299 27.4221 23.9915 26.2312 23.9254C25.0403 23.9915 22.1822 23.3299 20.2767 20.1542Z" fill="#C23232"/>
</g>
<g filter="url(#filter2_d_16_3537)">
<path d="M17.4133 21.2454C19.5806 23.1509 24.2898 13.5121 26.3448 8.58307L2 1C6.23475 6.95453 15.2461 19.34 17.4133 21.2454Z" fill="white"/>
</g>
<g filter="url(#filter3_d_16_3537)">
<path d="M35.1941 21.2454C33.0268 23.1509 28.3176 13.5121 26.2626 8.58307L50.6074 1C46.3727 6.95453 37.3614 19.34 35.1941 21.2454Z" fill="white"/>
</g>
<defs>
<filter id="filter0_i_16_3537" x="18.0215" y="20.8345" width="17" height="30" filterUnits="userSpaceOnUse" color-interpolation-filters="sRGB">
<feFlood flood-opacity="0" result="BackgroundImageFix"/>
<feBlend mode="normal" in="SourceGraphic" in2="BackgroundImageFix" result="shape"/>
<feColorMatrix in="SourceAlpha" type="matrix" values="0 0 0 0 0 0 0 0 0 0 0 0 0 0 0 0 0 0 127 0" result="hardAlpha"/>
<feOffset/>
<feGaussianBlur stdDeviation="2"/>
<feComposite in2="hardAlpha" operator="arithmetic" k2="-1" k3="1"/>
<feColorMatrix type="matrix" values="0 0 0 0 0 0 0 0 0 0 0 0 0 0 0 0 0 0 0.25 0"/>
<feBlend mode="normal" in2="shape" result="effect1_innerShadow_16_3537"/>
</filter>
<filter id="filter1_d_16_3537" x="15.8594" y="7.03906" width="20.7441" height="22.8906" filterUnits="userSpaceOnUse" color-interpolation-filters="sRGB">
<feFlood flood-opacity="0" result="BackgroundImageFix"/>
<feColorMatrix in="SourceAlpha" type="matrix" values="0 0 0 0 0 0 0 0 0 0 0 0 0 0 0 0 0 0 127 0" result="hardAlpha"/>
<feOffset dy="2"/>
<feGaussianBlur stdDeviation="2"/>
<feColorMatrix type="matrix" values="0 0 0 0 0 0 0 0 0 0 0 0 0 0 0 0 0 0 0.1 0"/>
<feBlend mode="normal" in2="BackgroundImageFix" result="effect1_dropShadow_16_3537"/>
<feBlend mode="normal" in="SourceGraphic" in2="effect1_dropShadow_16_3537" result="shape"/>
</filter>
<filter id="filter2_d_16_3537" x="0" y="0" width="28.3447" height="24.4913" filterUnits="userSpaceOnUse" color-interpolation-filters="sRGB">
<feFlood flood-opacity="0" result="BackgroundImageFix"/>
<feColorMatrix in="SourceAlpha" type="matrix" values="0 0 0 0 0 0 0 0 0 0 0 0 0 0 0 0 0 0 127 0" result="hardAlpha"/>
<feOffset dy="1"/>
<feGaussianBlur stdDeviation="1"/>
<feColorMatrix type="matrix" values="0 0 0 0 0.725 0 0 0 0 0.725 0 0 0 0 0.725 0 0 0 0.6 0"/>
<feBlend mode="normal" in2="BackgroundImageFix" result="effect1_dropShadow_16_3537"/>
<feBlend mode="normal" in="SourceGraphic" in2="effect1_dropShadow_16_3537" result="shape"/>
</filter>
<filter id="filter3_d_16_3537" x="24.2627" y="0" width="28.3447" height="24.4913" filterUnits="userSpaceOnUse" color-interpolation-filters="sRGB">
<feFlood flood-opacity="0" result="BackgroundImageFix"/>
<feColorMatrix in="SourceAlpha" type="matrix" values="0 0 0 0 0 0 0 0 0 0 0 0 0 0 0 0 0 0 127 0" result="hardAlpha"/>
<feOffset dy="1"/>
<feGaussianBlur stdDeviation="1"/>
<feColorMatrix type="matrix" values="0 0 0 0 0.725 0 0 0 0 0.725 0 0 0 0 0.725 0 0 0 0.6 0"/>
<feBlend mode="normal" in2="BackgroundImageFix" result="effect1_dropShadow_16_3537"/>
<feBlend mode="normal" in="SourceGraphic" in2="effect1_dropShadow_16_3537" result="shape"/>
</filter>
</defs>
</svg>
