<svg width="23" height="19" viewBox="0 0 23 19" fill="none" xmlns="http://www.w3.org/2000/svg">
<rect x="20.2256" width="4.5" height="25" rx="2.25" transform="rotate(54 20.2256 0)" fill="#EBEEF0"/>
<rect x="20.2256" width="4.5" height="12.5" rx="2.25" transform="rotate(54 20.2256 0)" fill="#FFA16C"/>
<path d="M1.32257 16.5146C2.05297 17.52 3.46005 17.7428 4.46537 17.0124C5.47069 16.282 5.69355 14.8749 4.96314 13.8696C4.23274 12.8643 2.82565 12.6414 1.82034 13.3718C0.815019 14.1022 0.592159 15.5093 1.32257 16.5146Z" fill="#FF4040"/>
<path d="M11.4349 9.16771C12.1653 10.173 13.5724 10.3959 14.5777 9.66549C15.583 8.93508 15.8059 7.528 15.0754 6.52268C14.345 5.51736 12.938 5.2945 11.9326 6.02491C10.9273 6.75532 10.7045 8.1624 11.4349 9.16771Z" fill="#EBEEF0"/>
</svg>
