<svg width="20" height="29" viewBox="0 0 20 29" fill="none" xmlns="http://www.w3.org/2000/svg">
<path d="M16.2313 26.9736L11.8761 0.365712C11.8665 0.306622 11.8448 0.250159 11.8124 0.199821C11.78 0.149483 11.7375 0.106346 11.6877 0.0731398C11.6379 0.0399335 11.5818 0.0173551 11.5229 0.0068086C11.464 -0.00373786 11.4035 -0.00201415 11.3452 0.0118551C8.88746 0.530643 6.38498 0.808698 3.87327 0.842076C3.81027 0.840882 3.74786 0.853805 3.69052 0.879914C3.63317 0.906022 3.58237 0.944652 3.54191 0.992951C3.50144 1.04125 3.47226 1.098 3.45659 1.15903C3.44093 1.22006 3.43915 1.28383 3.45136 1.34564L7.82025 28.144C7.85704 28.3688 7.97661 28.5717 8.15544 28.7127C8.33427 28.8538 8.55944 28.9228 8.7866 28.9062C11.037 28.7206 13.2764 28.4208 15.4964 28.0079C15.7292 27.9647 15.9361 27.8326 16.0732 27.6395C16.2104 27.4465 16.2671 27.2077 16.2313 26.9736V26.9736Z" fill="#443425"/>
<path d="M16.9257 12.3971C16.0669 10.9854 14.8089 9.85994 13.3106 9.16306C11.8123 8.46618 10.1411 8.22913 8.50808 8.48189C6.8751 8.73464 5.35369 9.46585 4.1362 10.5831C2.91871 11.7003 2.05984 13.1534 1.66803 14.7587C1.27621 16.364 1.36906 18.0494 1.93493 19.6019C2.5008 21.1544 3.51429 22.5043 4.84719 23.481C6.1801 24.4576 7.77256 25.0172 9.42342 25.089C11.0743 25.1607 12.7094 24.7414 14.122 23.8841C15.0608 23.3143 15.878 22.5651 16.5271 21.6793C17.1761 20.7935 17.6442 19.7885 17.9046 18.7217C18.165 17.6549 18.2125 16.5472 18.0446 15.462C17.8766 14.3767 17.4964 13.3353 16.9257 12.3971V12.3971Z" fill="#EAEAEA"/>
<path d="M14.8568 25.0817C13.2059 26.0876 11.2937 26.5813 9.36217 26.5002C7.43063 26.4191 5.56653 25.7669 4.00574 24.6261C2.44495 23.4854 1.2576 21.9073 0.5939 20.0915C-0.0697963 18.2758 -0.179979 16.304 0.277238 14.4256C0.734454 12.5472 1.73856 10.8466 3.1625 9.53901C4.58644 8.23141 6.36622 7.37554 8.27669 7.0797C10.1872 6.78386 12.1425 7.06134 13.8952 7.87703C15.6479 8.69271 17.1194 10.01 18.1233 11.6621C19.4644 13.8761 19.8737 16.5314 19.2615 19.0465C18.6493 21.5616 17.0655 23.7317 14.8568 25.0817V25.0817ZM6.17353 10.8047C4.99903 11.5165 4.06211 12.5608 3.48132 13.8053C2.90053 15.0498 2.70197 16.4387 2.9108 17.7961C3.11963 19.1535 3.72643 20.4185 4.65444 21.4309C5.58244 22.4433 6.78995 23.1577 8.1241 23.4836C9.45824 23.8095 10.8591 23.7323 12.1493 23.2618C13.4396 22.7913 14.5613 21.9485 15.3724 20.8403C16.1836 19.7321 16.6478 18.4081 16.7062 17.036C16.7646 15.6638 16.4147 14.3052 15.7006 13.132C15.2286 12.3529 14.6075 11.6746 13.8729 11.1358C13.1384 10.5971 12.3047 10.2085 11.4198 9.9923C10.5349 9.77612 9.61603 9.7366 8.7158 9.876C7.81557 10.0154 6.95164 10.331 6.17353 10.8047V10.8047Z" fill="#443425"/>
</svg>
