<svg width="120" height="80" viewBox="0 0 120 80" fill="none" xmlns="http://www.w3.org/2000/svg">
<g clip-path="url(#clip0_37_150)">
<path d="M60 3.89468e-10C26.8594 3.89468e-10 0 15.3513 0 34.2856C0 46.077 9.17062 56.3527 25.0294 62.5298C25.0294 62.6027 24.9994 62.6556 24.9994 62.737C24.9994 67.8598 21.2306 73.4927 19.0219 76.3927H19.0275C18.8531 76.7043 18.75 77.0456 18.75 77.4114C18.75 78.8471 20.2687 80 22.1494 80C22.4325 80 22.8825 79.9557 23.0475 79.9557C23.0869 79.9557 23.1094 79.9557 23.1056 79.9642C34.8244 78.5056 47.7094 70.6171 50.2725 68.2371C52.9069 68.5356 54.6862 68.5799 56.8912 68.5799C57.8212 68.5799 58.8244 68.5714 60 68.5714C93.135 68.5714 120 53.2228 120 34.2857C120 15.3514 93.135 -8.92852e-05 60 3.89468e-10Z" fill="white"/>
<path d="M60 5.71419C88.9481 5.71419 112.5 18.5314 112.5 34.2857C112.5 50.0385 88.9481 62.8571 60 62.8571L56.8931 62.8656C54.8325 62.8656 53.4844 62.8242 51.3769 62.5841L47.175 62.127L44.4788 64.6127C43.2394 65.7541 36.915 69.7127 29.9344 72.2613C31.3538 69.4013 32.4 66.2784 32.4938 63.1898L32.5312 63.0198V59.0356L28.4456 57.4456C15.1331 52.257 7.5 43.817 7.5 34.2856C7.5 18.5313 31.0519 5.71419 60 5.71419ZM60 3.89468e-10C26.8594 3.89468e-10 0 15.3513 0 34.2856C0 46.077 9.17062 56.3527 25.0294 62.5298C25.0294 62.6027 24.9994 62.6556 24.9994 62.737C24.9994 67.8598 21.2306 73.4927 19.0219 76.3927H19.0275C18.8531 76.7043 18.75 77.0456 18.75 77.4114C18.75 78.8471 20.2687 80 22.1494 80C22.4325 80 22.8825 79.9557 23.0475 79.9557C23.0869 79.9557 23.1094 79.9557 23.1056 79.9642C34.8244 78.5056 47.7094 70.6171 50.2725 68.2371C52.9069 68.5356 54.6862 68.5799 56.8912 68.5799C57.8212 68.5799 58.8244 68.5714 60 68.5714C93.135 68.5714 120 53.2228 120 34.2857C120 15.3514 93.135 -8.92852e-05 60 3.89468e-10Z" fill="black"/>
</g>
<defs>
<clipPath id="clip0_37_150">
<rect width="120" height="80" fill="white"/>
</clipPath>
</defs>
</svg>
